<?xml version="1.0" encoding="utf-8"?>
<!-- Generator: Adobe Illustrator 12.0.1, SVG Export Plug-In . SVG Version: 6.00 Build 51448)  -->
<!DOCTYPE svg PUBLIC "-//W3C//DTD SVG 1.1//EN" "http://www.w3.org/Graphics/SVG/1.1/DTD/svg11.dtd" [
	<!ENTITY ns_svg "http://www.w3.org/2000/svg">
	<!ENTITY ns_xlink "http://www.w3.org/1999/xlink">
]>
<svg  version="1.1" id="Layer_1" xmlns="&ns_svg;" xmlns:xlink="&ns_xlink;" width="308.011" height="362.479"
	 viewBox="0 0 308.011 362.479" overflow="visible" enable-background="new 0 0 308.011 362.479" xml:space="preserve">
<g>
	<g>
		<path d="M271.893,142.004c-1.608,6.821-3.905,13.829-6.874,21.007c-2.973,7.178-6.443,13.704-10.405,19.578
			c-3.972,5.868-7.856,10.215-11.675,13.05l12.658,39.906c0.06,0.749-0.629,3.273-2.06,7.549c-1.435,4.28-2.461,7.205-3.096,8.767
			c-2.963,0.993-5.039,2.806-6.219,5.427c-1.184,2.617-1.618,5.928-1.298,9.946c0.258,3.26,1.438,8.596,3.555,16.005
			c1.106,4.46,1.729,7.442,1.849,8.946c0.137,1.772,0.08,4.257-0.167,7.456c-0.258,3.199-0.729,5.209-1.425,6.024
			c0.281,3.541,0.194,8.764-0.268,15.667c-0.595,5.39-0.771,9.476-0.551,12.254c0.264,3.29,1.126,6.142,2.584,8.572l-4.995,8.786
			c-6.613,2.956-12.691,5.266-18.248,6.928c-5.57,1.658-11.749,2.758-18.532,3.297l-26.102,1.311
			c-2.691-2.053-7.172-4.229-13.427-6.503c-6.747-2-11.477-4.276-14.216-6.838l-7.551,0.605c-3.427-1.755-6.459-4.105-9.104-7.055
			c-2.633-2.942-5.533-6.82-8.7-11.618l-1.698-2.146l-0.508-6.409c-0.12-1.501-0.993-4.587-2.633-9.261
			c-0.951-2.451-1.608-4.293-1.956-5.533l-3.111-0.883l-15.65-24.918l-4.36-2.304l-5.421,3.464
			c-9.529-2.026-18.658-4.641-27.399-7.867c-8.728-3.216-16.971-7.306-24.701-12.247c-7.741-4.941-14.101-10.946-19.089-18.011
			c-4.99-7.061-7.862-15.232-8.597-24.523c-0.777-9.793,0.317-17.522,3.278-23.192c2.974-5.664,7.844-12.053,14.621-19.168
			c7.496-7.669,12.792-14.279,15.89-19.83l1.514-0.12l4.863-5.697c-5.288-9.188-13.029-23.761-23.223-43.701
			C20.15,90.479,12.845,76.631,7.532,67.173l-7.52-13.45c-0.155-2.009,1.107-4.45,3.782-7.329c2.691-2.865,6.011-5.664,9.971-8.378
			c3.96-2.722,7.886-5.129,11.762-7.208c3.895-2.076,6.712-3.189,8.477-3.327c1.153-1.361,3.438-2.932,6.837-4.721
			c3.398-1.795,5.791-3.5,7.191-5.132c7.542-0.598,18.449-3.49,32.723-8.676c14.268-5.186,25.174-8.074,32.723-8.673
			c4.786-0.378,11.05-0.371,18.796,0.017c7.76,0.408,15.739,1.348,23.966,2.849c8.221,1.495,15.59,3.511,22.123,6.025
			c6.525,2.518,11.086,5.707,13.674,9.542c0.833,0.956,1.538,3.55,2.133,7.81c0.589,4.256,1.224,9.017,1.893,14.279
			c0.462,5.788,0.869,9.292,1.217,10.535l0.622,2.985l-0.604,1.946l-0.438-0.719c2.029,6.413,4.319,16.112,6.867,29.067
			c2.718,11.936,5.212,21.809,7.482,29.602c2.26,7.79,5.323,15.319,9.204,22.601c1.669-1.143,4.183-2.985,7.533-5.523
			c7.626-5.921,14.329-10.816,20.1-14.691c5.761-3.878,10.659-5.978,14.682-6.299l10.982,13.938
			C274.112,129.263,273.504,135.19,271.893,142.004z M17.907,216.682l-0.761,0.061l0.33,4.146l0.759-0.061L17.907,216.682z
			 M21.489,199.688c-0.641,1.562-0.933,2.607-0.891,3.109c-1.891,4.954-2.733,8.689-2.531,11.207
			c2.077-5.73,3.763-10.044,5.05-12.936C22.53,200.112,21.992,199.65,21.489,199.688z M19.139,213.161l-0.371,0.03l0.694,8.686
			l0.364-0.03L19.139,213.161z M20.904,220.998l-0.377,0.03l0.688,8.679l0.376-0.03L20.904,220.998z M22.004,230.025l-0.383,0.029
			l0.09,1.137l0.383-0.029L22.004,230.025z M21.716,221.696l-0.371,0.03l0.09,1.13l0.371-0.029L21.716,221.696z M24.881,232.445
			l-0.724,0.445l-0.717-9.058c0.018,0.251-0.09,0.515-0.318,0.789c-0.232,0.268-0.341,0.525-0.322,0.779
			c0.018,0.25,0.221,1.123,0.592,2.611c0.102,1.257,0.167,2.143,0.21,2.641l0.119,1.519c-0.251,0.017-0.515-0.098-0.789-0.325
			c0.232-0.267,0.478-0.424,0.729-0.44c-0.568-0.713-0.915-1.949-1.058-3.708c-0.019-0.254-0.09-1.134-0.209-2.639
			c-0.079-1.013-0.132-1.641-0.15-1.892l0.09,1.13c-0.192,0.779-0.275,1.294-0.252,1.545l0.299,3.768
			c0.019,0.251,0.204,1,0.552,2.236c0.102,1.258,0.161,2.017,0.186,2.271c-0.042-0.505,0.167-1.029,0.634-1.581l0.526,1.862
			l-0.789-0.312c0.023,0.251,0.202,0.873,0.532,1.853c0.431,2.243,0.928,3.721,1.496,4.439L24.881,232.445z M25.366,233.552
			l-0.754,0.061l0.15,1.893l0.754-0.061L25.366,233.552z M89.251,154.077l-1.13,0.09c-0.503,0.037-0.886,0.073-1.13,0.09
			c-6.037,0.478-12.946,2.625-20.736,6.436c-1.053-0.404-2.076-0.575-3.074-0.495c-2.77,0.221-6.509,1.682-11.229,4.39
			c-4.721,2.712-9.326,6.025-13.827,9.943c-4.499,3.912-8.292,7.904-11.384,11.953c-3.098,4.049-4.66,7.549-4.677,10.491l2.063,2.12
			l-0.059-0.756c-0.097-1.261,0.323-3.126,1.267-5.604c0.939-2.484,2.311-5.129,4.116-7.927c1.807-2.799,3.578-5.099,5.343-6.881
			c1.753-1.789,3.26-2.729,4.523-2.829l1.729-2.033l0.843,1.07l1.682-2.789l1.155,0.288l2.99-0.615
			c-0.078-1.013,0.712-2.213,2.369-3.614l0.378-0.03l2.357,0.956l1.1-0.471l-0.873-1.441l0.311-0.792l1.889-0.147l1.568,0.638
			c0.844-2.1,2.023-3.199,3.536-3.32l0.378-0.03l0.083,1.13c0.963-0.579,1.675-1.267,2.111-2.063
			c0.448-0.749,0.921-1.137,1.424-1.18c0.251-0.017,0.64,0.074,1.165,0.264c1.275,0.134,2.16,0.181,2.67,0.137l1.8-1.2l0.459,1.023
			l4.733-2.501l0.376-0.03l0.354-0.378c1.249-0.101,2.422,0.281,3.499,1.137l2.501-1.969l1.568,0.582l1.076-0.789l-0.807-0.648
			l0.664-1.11c0.269,0.207,0.675,0.538,1.22,0.963c0.789,0.411,1.202,0.849,1.239,1.314C87.87,157.374,88.666,156.25,89.251,154.077
			z M39.005,257.153c-1.884-1.371-3.828-3.618-5.849-6.747l-0.438-0.729c-0.023-0.255-0.299-0.605-0.843-1.073
			c-0.545-0.458-0.951-0.8-1.22-1.04l-0.408-0.348l-0.03-0.382c-0.292-0.481-0.453-0.846-0.471-1.103
			c-1.49-2.919-2.765-4.588-3.812-5.012l-0.03-0.371l0.311-0.789l-0.03-0.371l0.443,0.719c0.042,0.501,0.072,0.883,0.09,1.137
			c-0.121-1.515-0.515-3.25-1.179-5.229c-0.216,0.525-0.276,1.291-0.192,2.297c0.037,0.502,0.109,1.388,0.211,2.638
			c0.346,1.244,0.573,2.488,0.675,3.752c0.25-0.021,2.053,1.985,5.415,6.024c1.663,1.889,3.188,3.541,4.563,4.951
			c1.383,1.408,2.339,2.351,2.884,2.812L39.005,257.153z M27.011,244.428l-0.119-1.518l0.376-0.03l0.121,1.519L27.011,244.428z
			 M63.401,110.526c-0.25,0.023-0.497,0.174-0.729,0.441l-0.396-0.351c0.48-0.288,0.712-0.562,0.689-0.809l-1.19-0.669
			c-1.341-0.909-2.136-1.347-2.387-1.327c-0.25,0.017-0.742,0.184-1.471,0.495l-0.354,0.408c0.779,0.19,1.837,0.742,3.166,1.651
			c0.794,0.441,1.453,0.766,1.973,0.973c0.025,0.25,0.043,0.508,0.06,0.762l0.761-0.067L63.401,110.526z M58.717,104.067
			l-0.759,0.057l0.119,1.508l0.761-0.061L58.717,104.067z M64.675,112.322l-1.501,0.12l0.03,0.381l1.508-0.121L64.675,112.322z
			 M77.316,128.032c-1.046-0.421-1.837-0.739-2.357-0.953l0.67-1.197c-0.311-0.735-1.077-1.622-2.304-2.668
			c-1.22-1.033-2.22-1.651-2.991-1.849l-0.09-1.13c-0.586-0.963-1.417-1.909-2.5-2.842c-1.399-1.651-2.392-2.965-2.972-3.935
			l0.119,1.511c1.944,2.126,3.649,4.583,5.139,7.379c1.489,2.788,2.345,5.57,2.568,8.332c0.255,3.28-1.628,5.075-5.649,5.396
			c0.814,0.689,1.473,1.017,1.974,0.977c1.508-0.121,3.22-0.886,5.134-2.304c1.195-0.856,2.033-1.431,2.518-1.718
			c0.963-0.579,2.58-0.966,4.84-1.147c0.981-0.331,1.855-0.528,2.609-0.588C82.671,130.132,80.434,129.049,77.316,128.032z
			 M84.979,262.609c-1.351-4.186-2.225-7.285-2.638-9.284c-0.061-0.749-0.251-1.488-0.562-2.23
			c-0.431-2.243-0.814-3.925-1.155-5.038c-0.341-1.113-0.766-1.639-1.269-1.605l1.795,8.215c2.369,10.699,4.253,18.522,5.659,23.471
			l1.132-0.09c0.232-0.271,0.329-0.659,0.292-1.16C88.014,272.114,86.924,268.022,84.979,262.609z M81.882,242.729l-0.761,0.061
			l0.121,1.515L82,244.244L81.882,242.729z M84.459,232.271c0.023,0.254-0.065,0.766-0.25,1.538
			c-0.216,0.535-0.527,1.438-0.928,2.735c-0.575,2.326-1.209,3.895-1.896,4.714l0.089,1.123c0.503-0.033,0.73-0.311,0.688-0.812
			c0.274,0.234,0.437,0.599,0.473,1.101c-0.018-0.251,0.077-0.509,0.311-0.782c-0.06-0.749,0.03-1.268,0.262-1.538l-0.03-0.378
			c-0.06-0.753,0.137-1.397,0.599-1.949c0.023,0.251,0.174,0.495,0.443,0.729l-0.09-1.137l0.408,0.348
			c0.077,1.01-0.139,1.531-0.64,1.575c-0.227,0.268-0.336,0.531-0.312,0.782l0.726-0.438l0.376-0.026
			c-0.06-0.756,0.102-1.909,0.485-3.46c0.425-1.04,0.604-1.943,0.543-2.702C85.172,233.231,84.752,232.757,84.459,232.271z
			 M81.641,239.714l-0.316,0.786l0.406,0.348l0.311-0.786L81.641,239.714z M105.082,133.438c-0.503,0.043-1.12,0.221-1.861,0.532
			c-0.749,0.06-1.25,0.104-1.502,0.12c-1.764,0.144-4.205-0.297-7.322-1.334c-3.104-0.772-5.408-1.1-6.916-0.976
			c-1.255,0.097-2.793,0.665-4.605,1.702c-1.819,1.04-2.687,2.063-2.603,3.073c0.102,1.273,0.777,1.855,2.04,1.755
			c0.252-0.02,0.97-0.461,2.167-1.324l0.724-0.435c1.22-0.605,3.332-1.023,6.352-1.271c2.016-0.154,4.709,0.264,8.083,1.271
			c3.1,0.769,5.403,1.1,6.904,0.979c1.52-0.121,2.218-0.812,2.118-2.083C108.539,133.937,107.342,133.258,105.082,133.438z
			 M128.244,152.499l-0.759,0.06l-0.724,0.435l0.119,1.508c-0.771-0.19-1.693-0.622-2.758-1.297
			c-1.866-1.12-3.798-1.598-5.814-1.435l-26.473,1.337c-1.255,0.104-1.86,0.535-1.8,1.287l0.121,1.515l3.021-0.241
			c0.251-0.023,0.503-0.04,0.761-0.06l0.088,1.13c0.73-0.311,1.568-1.01,2.489-2.1l-0.466-1.106
			c0.814,0.702,1.782,1.765,2.907,3.189c0.25-0.023,0.735-0.311,1.454-0.873c0.717-0.562,1.322-0.863,1.831-0.903
			c0.25-0.02,0.633,0.077,1.16,0.288l0.814,0.699c1.153-1.364,2.111-2.076,2.865-2.13c0.501-0.043,0.789,0.441,0.873,1.448
			l0.061,0.749l1.13-0.09c0.928-1.083,1.886-1.795,2.867-2.123l0.413,0.351l-0.257,1.531c0.244-0.017,0.622-0.167,1.1-0.461
			c0.719-0.555,1.322-0.866,1.83-0.903c0.252-0.023,0.635,0.074,1.155,0.281c0.269,0.234,0.538,0.348,0.796,0.324l0.717-0.441
			l0.754-0.06c0.754-0.061,1.186,0.542,1.288,1.792l1.1-0.465c1.22-0.599,2.076-0.926,2.578-0.963
			c0.503-0.043,0.893,0.06,1.167,0.291c0.27,0.227,0.539,0.337,0.791,0.314c0.244-0.02,0.615-0.05,1.123-0.09
			c0.485-0.287,0.977-0.455,1.478-0.498l1.227,1.046l1.16,0.281c0.479-0.284,0.844-0.572,1.071-0.843
			c0.928-1.083,1.891-1.662,2.9-1.742l0.413,0.337l0.749-0.06C132.443,152.796,129.998,152.355,128.244,152.499z M114.485,237.484
			c-0.789-0.438-1.657-1.766-2.596-3.966c-0.928-2.21-1.436-3.812-1.513-4.824c-0.025-0.251,0.065-0.766,0.25-1.534l-0.09-1.134
			l-1.13,0.09c-0.478,0.288-1.202,0.732-2.178,1.311c-2.434,1.204-3.601,2.435-3.505,3.698c0.144,1.759,1.693,3.788,4.667,6.085
			l0.437,0.729l0.376-0.03c0.234-0.273,0.473-0.424,0.73-0.44c0.246-0.027,0.646,0.2,1.19,0.661c0.311,0.742,0.599,1.09,0.849,1.07
			c0.251-0.023,0.742-0.178,1.478-0.488c0.478-0.294,0.844-0.455,1.095-0.475L114.485,237.484z M108.754,232.231
			c-0.425,1.047-0.617,1.825-0.575,2.32l-1.13,0.091c-0.023-0.244-0.061-0.749-0.121-1.515l-0.466-1.094l-0.088-1.137
			c-0.025-0.244,0.19-0.772,0.633-1.568l0.318-0.778c1.046,0.421,1.589,0.883,1.626,1.384
			C108.993,230.437,108.921,231.209,108.754,232.231z M242.604,297.48l-0.803,4.243l-1.344-2.551l-1.505,0.12l-3.591,2.561
			l-2.624,0.211l-2.986,0.615l-1.531-0.258l-1.471,0.498c-0.251,0.018-0.635,0.047-1.137,0.087c-0.521-0.207-0.896-0.304-1.15-0.287
			c-2.267,0.181-4.322,1.233-6.185,3.153l-0.76,0.06l-2.093-2.494c-3.521,0.281-5.63,0.833-6.329,1.658
			c-0.688,0.819-1.149,3.039-1.364,6.641c-0.317-0.789-0.795-1.963-1.424-3.538c-0.963-2.607-2.962-3.798-5.978-3.557l-4.347,2.621
			c-0.622-1.468-2.822-2.053-6.6-1.756c-2.013,0.164-3.267,0.265-3.771,0.301l-3.534,3.32l-0.993-2.962l-7.375-2.069l-3.283,1.775
			l-0.749,0.06l1.327-2.374l-0.819-0.698c-1.758,0.137-4.427-0.027-8.011-0.505l-0.782-0.317l-1.802,1.287l-6.563-1.381l-3.302,1.4
			c0.06,0.759,0.048,2.277-0.023,4.558c-0.097,1.949-0.108,3.403-0.03,4.356c0.035,0.471,0.202,0.942,0.49,1.394
			c0.037,0.509,0.079,1.01,0.12,1.512l-2.268,0.181c-0.388-1.749-1.214-4.086-2.453-7.031c-1.25-2.936-2.77-6.112-4.552-9.516
			c-1.561-3.674-2.494-5.881-2.805-6.616l0.633-1.568l1.603,1.01l0.706-5.373l-0.03-0.374c-1.65-1.646-3.021-2.985-4.121-4.039
			c-1.09-1.06-2.268-1.531-3.523-1.431l-3.417,4.824l2.095,2.498l-1.796,1.28c-2.77,0.224-4.301-1.562-4.6-5.336
			c-0.042-0.495,0.055-0.89,0.294-1.16l-0.06-0.753l-4.834-3.41c-1.764,0.138-3.564,1.352-5.413,3.654
			c-1.837,2.304-2.8,4.471-2.89,6.496l1.19,0.666c0.21-0.521,0.521-1.304,0.951-2.351c1.018-3.123,2.405-4.758,4.164-4.895
			l0.819,0.695l-0.981,1.979l1.192,0.662l-1.652,3.173l2.207-0.934l-0.543,2.691l1.197,0.669l0.646,3.37l1.447-0.876l0.963,2.581
			l-1.387,1.625l-2.292-0.19l-0.501-1.478l-1.137,0.09l-3.464-5.426l-1.389,1.631c0.162,2.097,2.113,4.31,5.846,6.644
			c1.339,0.942,2.285,1.655,2.823,2.14l1.106-0.484l1.257,1.478l1.04-1.228c0.791,0.452,1.873,1.241,3.231,2.395
			c1.334,0.893,2.142,1.454,2.411,1.682l-1.334,2.363l2.207-0.929l-1.244,3.477l1.831-0.893l0.401,0.348l0.06,0.742
			c-0.234,0.258-0.324,0.622-0.288,1.1c0.149,1.896,0.747,3.033,1.782,3.431l-4.193,4.511l-0.378,0.029
			c-0.429-2.243-1.812-5.303-4.146-9.167l0.981-1.979l-1.285-1.795l-0.181-2.268l-2.542,1.341l0.461,1.106
			c2.985,8.884,4.677,15.831,5.078,20.866c0.121,1.501,2.626,4.337,7.508,8.513c3.303,3.279,5.379,5.51,6.233,6.72l3.489,0.859
			c0.227-0.268,0.837-0.578,1.824-0.909c2.183-1.184,3.607-2.308,4.29-3.374l0.406,0.342l1.478-0.495l2.705,0.548l-1.209,3.889
			c3.905,1.461,9.702,4.289,17.379,8.485c2.909,1.512,5.804,2.902,8.687,4.162l1.13-0.09c4.63,0.902,10.087,1.1,16.376,0.605
			c3.019-0.241,5.179-1,6.466-2.28c1.29-1.28,2.36-2.902,3.223-4.865c0.615-1.821,1.425-2.768,2.431-2.852
			c0.752-0.061,1.815,0.615,3.2,2.022c1.377,1.381,2.849,2.447,4.426,3.2c1.578,0.735,3.872,0.993,6.901,0.756
			c3.002-0.241,6.787-1.735,11.371-4.487c4.57-2.755,6.743-5.623,6.509-8.622c-0.12-1.508-0.665-3.487-1.618-5.941
			c-1.184-2.19-1.835-4.032-1.952-5.54c-0.164-2.01,1.01-4.761,3.517-8.255l0.345-0.408c-0.425-5.306-0.669-9.164-0.729-11.581
			c-0.07-2.404,0.09-4.517,0.448-6.329L242.604,297.48z M244.744,218.394l-6.814,5.105c2.548-2.986,4.193-6.099,4.955-9.321
			c0.76-3.22,1.207-7.122,1.352-11.692c-6.453-11.133-11.308-19.602-14.551-25.423l-3.049-0.137
			c-2.806-0.281-4.965-0.368-6.479-0.248c-6.286,0.498-12.695,1.899-19.222,4.189c-6.525,2.29-11.407,5.335-14.657,9.14
			c-1.985,0.411-5.406,2.01-10.247,4.805c-4.842,2.782-7.83,4.981-8.967,6.593c-4.025,0.321-6.118-0.521-6.282-2.537l-1.622-1.395
			l-1.076,0.85c-2.051-0.341-7.364-0.298-15.936,0.13c-5.037,0.398-8.872,0.636-11.528,0.726c-2.651,0.084-4.374-0.1-5.164-0.538
			l-1.274,3.133l-1.16-0.291c-2.608,2.237-5.175,5.798-7.7,10.686c-2.518,4.882-3.661,8.833-3.415,11.855l2.895-1.759l0.376-0.029
			l-3.733,5.616l2.793,1.669c0.7,2.483,2.812,5.229,6.347,8.237l-2.081,2.447l-2.824-2.056l-1.735,2.032l-1.088,5.403l3.84,5.396
			l1.772-1.665l-0.981,1.979l0.933,2.203l2.178-1.317l0.43,0.735l-1.705,2.41c1.628,1.392,2.609,2.585,2.944,3.567l-0.944,2.351
			l1.884-0.15l-0.234,1.916l2.357,0.956l1.855-0.531l2.387,1.334l5.192-1.555l0.808,0.691l2.148-1.685l0.471,1.1l1.826-0.909
			l0.777,0.324l3.942-2.979l1.921,0.23l2.902-1.745l2.668,0.167c-0.042-0.502,0.065-0.766,0.318-0.782
			c1.004-0.08,1.548,0.381,1.626,1.381c0.232-0.271,1.183-1.101,2.835-2.501c3.068-2.775,5.306-4.979,6.687-6.61l0.855,1.07
			c-1.645,1.658-2.861,3.774-3.664,6.372c-0.374,1.799-1.017,3.243-1.939,4.33c-0.935,1.09-2.842,2.501-5.744,4.26l0.436,0.719
			l-7.094,6.262l0.018,4.935c1.142,1.688,1.819,3.782,2.016,6.296c0.019,0.251-0.377,1.675-1.178,4.27l-0.264,1.545l8.078,1.257
			l2.206-0.933l-1.645-6.329l1.076-0.853c1.125,1.438,1.885,4.667,2.285,9.699l6.275,2.537c1.766-0.137,2.508-1.969,2.234-5.493
			l0.806,0.699l0.973,7.516l1.451-0.916c0.812,0.735,1.478,1.083,1.979,1.04c0.494-0.033,1.37-0.23,2.614-0.585
			c0.982-0.328,1.725-0.521,2.233-0.562l1.297-2.751l2.153,3.243l0.087,1.13c0.505-0.037,0.899,0.061,1.17,0.287
			c2.053,0.342,3.584,0.472,4.587,0.395l3.374-0.642l2.22-5.413l3.814,4.929c4.774-0.375,6.995-2.715,6.653-7.005
			c-0.033-0.501-0.268-1.745-0.682-3.737c-0.408-2-0.655-3.628-0.759-4.882l1.046-1.221c2.311,3.722,4.072,8.393,5.289,14.029
			l6.039-0.481l3.557-2.942l7.412,2.069l2.604-0.969l0.302-5.737c0.551,0.498,1.149,1.665,1.802,3.5
			c1.013,3.076,2.397,4.547,4.169,4.403c1.893-1.424,2.982-3.487,3.27-6.209l3.05,5.323l2.273,0.204l0.524,1.855
			c-0.1-1.258,0.057-2.538,0.462-3.835c0.167-1.043,0.237-1.688,0.221-1.946l-2.01-25.275c-0.137-1.762-0.705-4.119-1.705-7.081
			c-0.916-1.949-1.388-3.177-1.431-3.685c-1.043-0.422-2.615-1.054-4.708-1.909c-3.888-1.204-6.717-2.562-8.481-4.062
			c-1.766-1.508-2.806-4.272-3.13-8.298c-1.046-0.425-2.785-1.675-5.226-3.762c-2.701-2.066-4.704-3.423-6.021-4.082l3.748-0.676
			c1.769-0.144,4.209,0.175,7.328,0.934l1.719,2.53l0.735-0.441l0.906,1.819l0.639-1.562l0.441,0.723l0.181,2.267l1.13-0.091
			l-0.188,2.287l1.886-0.15l0.368,4.53l1.123-0.09l1.311,2.176l0.12,1.515l5.557,3.351c2.883-1.749,6.336-2.782,10.345-3.106
			l4.079-15.507L244.744,218.394z M165.928,225.404c-1.745,3.434-3.316,6.024-4.694,7.776c-1.378,1.756-3.328,2.742-5.841,2.939
			c-1.513,0.12-3.733,0.802-6.67,2.046c-3.178,1.518-5.517,2.341-7.024,2.457c-1.506,0.121-3.636-0.404-6.389-1.584
			c-2.751-1.174-5.605-2.775-8.554-4.821c-2.944-2.046-5.45-4.129-7.514-6.246c-2.063-2.105-3.158-3.925-3.278-5.426
			c-0.16-2.016,1.322-5.547,4.469-10.605c3.147-5.062,5.582-7.79,7.329-8.178c2.705-0.977,5.57-1.588,8.591-1.825
			c1-0.077,2.531,0.054,4.582,0.395c1.825,0.615,3.236,0.879,4.243,0.802c0.501-0.043,1.118-0.217,1.854-0.527
			c0.742-0.312,1.232-0.472,1.484-0.495c1.759-0.138,4.57,0.144,8.417,0.843c2.828,0.545,4.758,0.896,5.784,1.062
			c0.294,0.481,1.354,1.855,3.176,4.119c1.818,2.254,2.879,3.631,3.173,4.109c0.017,0.257,0.228,1.25,0.622,2.995
			c0.094,1.251,0.184,2.381,0.268,3.394C169.026,219.721,167.686,221.978,165.928,225.404z M125.732,297.708l-0.376,0.03
			l0.669-1.184l0.366-0.03L125.732,297.708z M122.275,239.895l0.088,1.13l-0.747,0.061l-0.383,0.03l-0.121-1.515
			c-0.023-0.251,0.348-0.404,1.102-0.465l0.03,0.378L122.275,239.895z M126.293,290.453l-0.411-0.348l0.323-0.789l0.413,0.351
			L126.293,290.453z M130.212,244.197c-0.256,0.017-0.933-0.564-2.04-1.735c-1.334-0.909-2.129-1.36-2.38-1.334l-1.132,0.087
			c-0.483,0.295-0.854,0.452-1.1,0.469l-0.09-1.131c-0.042-0.501,0.311-0.785,1.071-0.842c0.501-0.037,1.807,0.555,3.937,1.775
			c2.123,1.227,3.332,2.076,3.619,2.561L130.212,244.197z M132.767,324.121l-1.13,0.09l-0.06-0.763l-0.406-0.344l-0.149-1.893
			c-0.06-0.745,0.627-1.568,2.086-2.434l1.095-0.472c0.079,1.003,0.383,1.615,0.91,1.822l0.09,1.133L132.767,324.121z
			 M134.771,325.472c-0.25,0.02-0.353,0.287-0.316,0.789l0.406,0.341c0.292,0.491,0.448,0.855,0.466,1.106
			c0.019,0.254-0.317,0.786-1.011,1.599l-1.13,0.09c-0.019-0.251-0.065-0.879-0.149-1.886c-0.317-0.735-0.473-1.224-0.497-1.478
			c-0.037-0.502,0.425-1.047,1.388-1.632l0.724-0.432l0.466,1.097L134.771,325.472z M138.032,304.331
			c-0.019-0.251-0.299-0.484-0.821-0.695c-0.562-0.712-0.854-1.197-0.873-1.454c-0.023-0.251,0.299-1.033,0.951-2.351l0.322-0.789
			c0.868,1.461,1.329,2.431,1.371,2.933l0.179,2.267L138.032,304.331z M136.177,285.876l-0.089-1.137l0.759-0.061l0.09,1.13
			L136.177,285.876z M138.462,290.623c-0.49,0.288-0.717,0.568-0.699,0.816c-0.538-0.462-0.844-1.066-0.904-1.832l-0.088-1.131
			c-0.079-0.999,0.114-1.771,0.573-2.32l1.132-0.09c0.274,0.241,0.424,0.479,0.441,0.729l0.15,1.886
			C139.108,289.176,138.899,289.834,138.462,290.623z M139.282,305.756l-0.12-1.515l0.754-0.061l0.121,1.515L139.282,305.756z
			 M143.619,322.114l-0.784-0.32l-0.03-0.378l1.162,0.287L143.619,322.114z M145.941,332.185c-0.552-0.461-1.132-1.431-1.747-2.901
			c-0.628-1.465-0.958-2.454-1-2.956c-0.019-0.251,0.065-0.759,0.257-1.545c0.167-1.02,0.25-1.668,0.228-1.912
			c0.831,0.946,1.675,2.017,2.531,3.22c0.861,1.19,1.315,2.177,1.376,2.926C147.688,330.27,147.136,331.329,145.941,332.185z
			 M135.622,154.525c-0.252,0.02-0.617,0.301-1.078,0.853l-0.353,0.398l1.52-0.117L135.622,154.525z M144.319,244.967l-0.371,0.029
			l0.634-1.561l0.383-0.03L144.319,244.967z M138.545,153.151l-0.664,1.197l0.408,0.351l0.668-1.197L138.545,153.151z
			 M147.658,243.943c-0.228,0.277-0.473,0.421-0.719,0.438l-1.167-0.288c-0.077-1,0.384-1.545,1.389-1.628
			c0.251-0.017,0.64,0.08,1.167,0.287l0.376-0.03l0.06,0.756C148.53,243.753,148.159,243.91,147.658,243.943z M267.887,115.368
			c-1.003-1.331-2.247-1.929-3.758-1.809c-1.512,0.121-6.092,3.022-13.734,8.693c-11.481,8.505-22.555,15.717-33.227,21.625
			c-10.669,5.917-21.789,9.328-33.354,10.244l-0.782-0.311l-1.772,1.655l-2.009-1.357l-5.624,0.826
			c-4.537,0.357-10.512,0.073-17.917-0.85c-6.646-0.749-11.6-0.979-14.866-0.722l-1.132,0.087l2.004,1.361l-0.633,1.578l4.032-1.849
			l1.974,0.986l1.417-1.257l0.789,0.324l0.12,1.501l4.434-1.485l1.226,1.037l1.478-0.491l0.413,0.341l-0.232,1.922l3.685-1.438
			l1.598,1.016l2.236-0.555l0.151,1.886l3.677-1.438l1.228,1.046l2.926-1.374l0.842,1.07l2.933-1.371l1.221,1.043l1.832-0.899
			l1.564,0.629l2.555-1.341l1.189,0.666l2.233-0.555l0.147,1.882l2.842-2.507l0.786,0.324l0.116,1.501l0.756-0.06l2.468-2.464
			l0.869,1.448l2.491-2.093l2.039,1.735l2.805-2.886l1.348,2.551l5.293-4.972l0.876,1.448l3.584-2.554l1.156,0.288l6.122-3.892
			l0.933,2.19l3.49-3.678l1.211,1.04l3.183-3.276l0.839,1.063l3.909-3.745l1.541,0.257c0.465-0.538,1.046-1.22,1.748-2.046
			c0.716-0.562,1.311-1.12,1.775-1.662l0.866,1.448l3.483-4.076l0.521,1.855c0.93-1.037,2.344-2.347,4.246-3.942
			c1.665-1.341,2.729-2.267,3.2-2.782l0.809,0.652l3.17-3.136l1.134-0.09l2.487-2.106l1.16,0.281l1.705-2.41l1.631,1.394
			l3.153-3.307l0.822,0.699l1.07-0.849l1.16,0.288C269.428,118.099,268.866,116.675,267.887,115.368z M168.014,232.452
			c-1.297,2.896-2.28,4.875-2.949,5.935c-1.01,0.077-2.22,0.812-3.617,2.184c-1.628,1.908-3.692,2.955-6.21,3.152l-4.907,0.392
			l-0.058-0.756c-0.025-0.251,0.197-0.639,0.663-1.19c0.485-0.287,0.712-0.568,0.694-0.812l1.22,1.04
			c0.462-0.545,3.003-2.01,7.628-4.396c2.668-1.491,4.366-2.381,5.096-2.688c0.719-0.562,1.364-2.009,1.938-4.329
			c0.535-2.829,1.404-4.674,2.595-5.527c0.271,0.231,0.435,0.603,0.475,1.107C169.906,227.618,169.043,229.587,168.014,232.452z
			 M157.856,281.489c-2.093-0.849-3.176-1.769-3.26-2.781c-0.06-0.753,0.276-1.287,1.017-1.592c0.27,0.228,0.688,0.702,1.25,1.411
			c0.563,0.726,0.981,1.193,1.258,1.424L157.856,281.489z M161.524,318.029l-1.137,0.09c-0.585-0.963-0.899-1.691-0.933-2.2
			c-0.101-1.257,0.381-3.196,1.438-5.811l0.087,1.13c0.06,0.756,0.257,1.629,0.588,2.611c0.101,1.261,0.161,2.017,0.178,2.267
			C161.828,317.12,161.752,317.762,161.524,318.029z M159.575,307.879l-0.12-1.508l0.759-0.061l0.12,1.508L159.575,307.879z
			 M165.82,271.743c-0.254,0.021-1.144-0.033-2.675-0.167c-1.257,0.104-2.387,0.194-3.39,0.271c0.207-0.521,0.815-0.825,1.822-0.909
			c0.752-0.06,1.22-0.468,1.417-1.25l9.058-0.719l0.408,0.348c0.541,0.461,0.949,0.812,1.22,1.046
			C170.2,271.142,167.579,271.6,165.82,271.743z M167.709,286.02c-0.017-0.251-0.388-1.735-1.113-4.463l-1.487-4.44
			c-0.023-0.251,0.07-0.639,0.284-1.167l-0.057-0.745c1.294,0.397,2.009,1.357,2.13,2.865L167.709,286.02z M171.006,346.518
			l-0.06-0.752l4.152-0.338l0.06,0.763L171.006,346.518z M171.604,344.568l-0.374,0.03l-0.034-0.378l-0.026-0.371l-0.033-0.381
			l2.3,0.2C172.969,344.208,172.36,344.509,171.604,344.568z M168.231,240.031c-1.676,1.157-2.726,2.371-3.123,3.668l-0.228,1.916
			c0.084,1.01,0,1.645-0.228,1.912c-0.505,0.044-0.802-0.562-0.905-1.825c-0.117-1.505,0.301-3.307,1.276-5.413
			c0.977-2.1,2.087-3.206,3.351-3.307c0.501-0.037,0.883,0.063,1.16,0.291l0.465,1.104
			C169.519,238.668,168.923,239.219,168.231,240.031z M167.706,262.102l-0.06-0.753l1.889-0.15l0.06,0.746L167.706,262.102z
			 M191.651,350.768c-1.1,0.458-1.782,0.705-2.026,0.722c-0.505,0.044-1.812-0.484-3.918-1.585
			c-1.582-0.628-2.484-0.939-2.735-0.922l-0.729,0.444l-0.749,0.06c-1.271,0.101-3.069-0.397-5.437-1.474l-1.578-0.632
			c0.255-0.023,0.499-0.164,0.739-0.432c0.502-0.044,1.01,0.037,1.531,0.244c0.502-0.033,0.886-0.063,1.13-0.091
			c0.505-0.033,1.251-0.214,2.237-0.548c1.006-0.077,1.631-0.127,1.885-0.15l1.167,0.28c0.017,0.251-0.204,0.652-0.665,1.197
			l3.391-0.268c0.271,0.228,0.428,0.596,0.468,1.101c1.825,0.608,3.751,0.969,5.784,1.062l1.504-0.12
			C193.424,349.928,192.755,350.293,191.651,350.768z M162.898,196.806l-0.375,0.029l0.088,1.131l0.381-0.03L162.898,196.806z
			 M176.539,320.637c-1.257,0.104-1.949-0.602-2.069-2.109c-0.061-0.756,0.03-1.274,0.265-1.552
			c2.069,0.605,3.146,1.401,3.223,2.414C178.018,320.136,177.549,320.56,176.539,320.637z M213.979,328.29
			c-4.232,0.849-7.609,1.37-10.124,1.567l-1.196-0.665c-1.549-0.381-2.448-0.568-2.695-0.548c-0.505,0.04-1.766,0.144-3.785,0.297
			c-2.239,0.438-3.617,0.676-4.111,0.713c-1.512,0.12-3.197-0.385-5.056-1.491c-0.521-0.214-0.909-0.314-1.163-0.291
			c-1.261,0.094-3.17,0-5.718-0.305c-2.286-0.066-3.932-0.073-4.941,0.011l-0.12-1.508c5.617,0.568,12.457,0.527,20.508-0.114
			l4.518-0.357c2.016-0.161,3.521-0.281,4.533-0.361c0.271,0.228,0.692,0.833,1.28,1.796c0.712-0.562,1.047-1.221,0.986-1.973
			c0.244-0.023,0.986-0.204,2.227-0.559c1.01-0.084,1.646-0.131,1.89-0.147c0.254-0.026,1.016,0.04,2.3,0.19
			c1.541,0.388,2.822,0.539,3.825,0.462l1.17,0.287l-0.294,1.16c0.251-0.02,0.759-0.06,1.511-0.12
			c0.521,0.211,0.909,0.305,1.164,0.287c0.25-0.023,0.621-0.18,1.103-0.468c0.756-0.061,1.251-0.101,1.505-0.12l0.472,1.104
			C221.247,327.34,217.99,327.722,213.979,328.29z M178.448,215.679l-0.378,0.03l-0.715,0.435c-0.261,0.02-0.786-0.19-1.582-0.632
			c-0.806-0.695-1.471-1.023-1.976-0.983c-0.241,0.021-0.723,0.444-1.418,1.251c-0.465,0.545-0.815,0.825-1.069,0.846
			c-0.549-0.462-0.822-0.822-0.85-1.073c-0.04-0.502,0.415-1.171,1.364-2.01c1.425-1.12,2.1-2.189,2.022-3.192
			c-0.06-0.756-0.508-1.605-1.334-2.555c-0.301-0.481-0.582-0.832-0.849-1.073l0.257-1.538l0.438,0.719
			c1.685,2.146,3.089,3.936,4.219,5.366c1.124,1.431,1.702,2.273,1.719,2.524L178.448,215.679z M178.004,281.783
			c-1.297-0.4-1.979-1.106-2.06-2.105c-0.021-0.251,0.066-0.646,0.284-1.167l-0.091-1.13c-0.04-0.502-0.243-1.502-0.614-2.993
			c-0.328-0.986-0.522-1.734-0.562-2.229l1.137-0.091l0.147,1.886c0.04,0.502,0.361,1.364,0.963,2.585
			c0.893,1.691,1.36,2.798,1.404,3.3C178.191,280.891,177.987,281.536,178.004,281.783z M183.42,263.883l-0.378,0.03
			c-0.228,0.281-0.472,0.425-0.726,0.445l-1.156-0.295c-0.502,0.04-0.883,0.07-1.131,0.091c-0.254,0.023-0.374,0.16-0.354,0.411
			l-0.378,0.03c-1.508,0.12-2.511-0.622-3.026-2.23c-0.501-1.604-0.855-3.661-1.053-6.182c-0.104-1.251-0.174-2.133-0.211-2.638
			c0.615,1.468,1.378,3.059,2.273,4.757l0.689-0.815c0.766,3.233,2.534,4.734,5.299,4.514l0.759-0.061l0.033,0.382l0.401,0.341
			c0.021,0.257,0.04,0.508,0.063,0.756l0.023,0.374L183.42,263.883z M177.147,227.929c-0.308,2.561-0.655,4.62-1.032,6.158
			l1.193,0.669l0.268,3.394c0.083,1.017-0.174,2.548-0.772,4.624c-0.592,2.076-1.113,3.504-1.555,4.3
			c-0.271-0.234-0.441-0.856-0.528-1.853c-0.101-1.271,0.014-3.039,0.341-5.35l0.157-2.675c-0.582-0.963-0.899-1.825-0.96-2.577
			c-0.401-5.032,0.91-9.191,3.945-12.461C177.82,223.699,177.469,225.629,177.147,227.929z M177.114,203.629
			c-0.023-0.251-0.441-0.719-1.257-1.417c-0.555-0.713-0.97-1.061-1.221-1.033l0.204-2.301l1.13-0.087l2.033,1.735l0.24,3.013
			L177.114,203.629z M208.448,253.93c-0.752,0.061-1.782-0.113-3.075-0.521c-1.552-0.381-2.709-0.545-3.457-0.484
			c-1.512,0.12-3.48,0.785-5.915,1.992c-1.203,0.85-2.177,1.317-2.926,1.371c-0.508,0.04-1.029-0.05-1.551-0.258
			c-0.519-0.21-1.03-0.301-1.531-0.257c-0.515,0.04-1.104,0.465-1.799,1.28c-1.063-0.676-1.858-1.113-2.381-1.327
			c-1.862-1.12-3.143-2.09-3.841-2.922c-0.706-0.829-1.147-2.501-1.354-5.019c-0.254-3.267-0.147-7.52,0.324-12.748
			c0.465-5.229,1.461-7.907,2.962-8.021c0.251-0.026,0.512,0.087,0.789,0.314l0.405,0.354c0.247-0.017,0.625-0.181,1.103-0.472
			l0.354-0.414c0.746-0.061,1.652,0.127,2.688,0.559c1.05,0.417,1.825,0.608,2.33,0.568c1.508-0.121,2.715-0.85,3.624-2.188
			c0.692-0.812,1.418-1.247,2.17-1.307c1.766-0.144,4.153,2.133,7.195,6.83c3.025,4.697,5.155,8.389,6.386,11.073
			c0.742,2.979,1.174,5.229,1.294,6.73C212.48,252.081,211.22,253.709,208.448,253.93z M197.98,198.558
			c-1.297,2.889-1.909,4.707-1.849,5.459c0.02,0.255,0.06,0.763,0.12,1.515c0.327,0.986,0.515,1.735,0.555,2.237l0.033,0.367
			c-0.24,0.281-0.337,0.542-0.32,0.796c-0.93,1.08-1.351,2.13-1.271,3.133c-0.254,0.023-0.756,0.061-1.505,0.12
			c-0.989,0.335-1.608,0.509-1.858,0.525c-0.255,0.026-0.803-0.441-1.629-1.388c-1.113-1.177-1.915-1.738-2.417-1.705
			c-0.251,0.023-0.622,0.174-1.106,0.461l-0.341,0.415l-0.789-0.324c-0.505,0.04-0.88,0.07-1.131,0.09
			c-0.25,0.023-0.735,0.317-1.447,0.88c-1.177,1.106-2.016,1.675-2.521,1.715c-0.756,0.061-1.171-0.411-1.254-1.418l0.378-0.03
			c0.501-0.04,1.109-0.341,1.825-0.909c0.93-1.083,2.146-1.678,3.657-1.799c1.752-0.137,2.829-0.167,3.22-0.073
			c0.385,0.097,0.986,0.491,1.803,1.187c0.273,0.237,0.688,0.579,1.224,1.04c1.872-1.909,3.062-4.42,3.577-7.496
			c0.769-3.099,2.203-5.743,4.307-7.94C199.027,195.942,198.609,196.989,197.98,198.558z M193.37,326.926l-3.016,0.24l0.06,0.746
			l3.016-0.237L193.37,326.926z M189.357,223.927l-0.381,0.03c-0.562-0.713-1.15-1.806-1.771-3.283
			c-1.211-2.435-2.949-3.555-5.216-3.374l-0.087-1.137l3.025-0.24c0.498-0.037,1.357,1.156,2.558,3.591
			c0.602,1.227,1.043,1.942,1.311,2.176l0.763-0.06c0.478-0.291,0.842-0.448,1.1-0.465l0.061,0.759
			C190.778,222.673,190.324,223.349,189.357,223.927z M190.026,280.065c-1.36-1.147-2.09-2.357-2.193-3.618
			c-0.04-0.498,0.141-1.4,0.549-2.698c0.397-1.297,0.578-2.319,0.518-3.086c-0.083-0.999-0.271-1.741-0.564-2.227
			c0.274,0.234,0.762,1.585,1.468,4.062c0.698,2.478,1.09,4.213,1.166,5.223C191.029,278.474,190.712,279.26,190.026,280.065z
			 M196.312,320.968c-0.194,0.772-0.408,1.297-0.643,1.568l-1.618-1.388c0.207-0.521,0.752-1.588,1.646-3.173l0.313-0.782
			c0.288,0.484,0.476,1.227,0.552,2.224C196.586,319.674,196.503,320.195,196.312,320.968z M197.168,326.999l-1.886,0.147
			l0.03,0.378l1.882-0.15L197.168,326.999z M195.517,315.709l-0.091-1.13l0.749-0.061l0.091,1.13L195.517,315.709z M195.479,291.409
			l-0.378,0.03l0.288-1.16l0.384-0.03L195.479,291.409z M192.591,192.91c-0.404,1.304-0.826,2.411-1.257,3.327
			c-0.438,0.919-1.481,2.079-3.14,3.474l-0.061-0.746c-0.12-1.515,0.248-3.25,1.101-5.219c0.862-1.963,1.855-3.755,2.999-5.366
			l1.882-0.15C193.477,189.798,192.976,191.365,192.591,192.91z M202.922,308.668c-0.017-0.251-0.037-0.502-0.061-0.753
			l-0.029-0.384l-0.027-0.378l1.137-0.087c0.057,0.759,0.228,1.247,0.502,1.475L202.922,308.668z M202.072,269.242l-0.317,0.786
			c-0.294-0.484-0.472-1.227-0.555-2.236l-0.12-1.508c-0.288-0.485-0.603-1.221-0.939-2.204c-0.331-0.986-0.502-1.601-0.519-1.858
			c-0.044-0.505,0.02-1.271,0.188-2.294c-0.074-1.003-0.124-1.631-0.147-1.889c0.274,0.24,0.608,1.221,1,2.962
			c0.311,0.735,0.484,1.357,0.524,1.853c0.021,0.254,0.314,0.739,0.88,1.454c0.618,1.468,0.939,2.327,0.959,2.578
			C203.046,267.14,202.725,267.922,202.072,269.242z M191.849,154.993c-0.271-0.228-0.432-0.726-0.491-1.478l0.695-0.812
			l0.435,0.722l0.06,0.755C192.31,154.448,192.083,154.722,191.849,154.993z M204.082,275.351c-0.435,0.923-0.89,1.652-1.351,2.197
			l-1.13,0.09c-0.271-0.234-0.438-0.729-0.498-1.484c-0.058-0.752,0.043-1.771,0.324-3.062c0.28-1.287,0.668-1.949,1.177-1.992
			c1.25-0.101,1.945,0.604,2.065,2.119C204.711,273.72,204.514,274.432,204.082,275.351z M208.215,322.673l-0.429-0.726
			c-0.588-0.963-0.886-1.571-0.909-1.822c-0.061-0.749,0.16-1.156,0.669-1.189c0.02,0.25,0.407,0.471,1.184,0.655
			c0.552,0.468,0.829,0.825,0.849,1.076l0.121,1.515C209.465,322.452,208.97,322.613,208.215,322.673z M238.713,215.066
			c-1.207,3.889-3.37,6.981-6.477,9.245c-0.719,0.568-2.016,1.046-3.875,1.447c-1.869,0.401-3.557,0.669-5.062,0.789
			c-1.324-0.652-3.664-1.488-7.031-2.484c-4.941-1.631-8.231-3.146-9.853-4.533c-0.826-0.692-1.448-2.167-1.879-4.41
			c-0.348-1.23-0.669-2.093-0.957-2.577c-0.311-0.736-0.889-1.572-1.729-2.524c-1.37-1.404-2.1-2.621-2.183-3.618
			c-0.08-1.013,0.622-2.523,2.112-4.536c1.481-2.017,3.351-4.003,5.598-5.958c2.25-1.942,4.453-3.645,6.623-5.072
			c2.163-1.441,3.751-2.203,4.758-2.28c5.529-0.441,10.348,0.441,14.449,2.651c4.1,2.207,6.366,6.071,6.808,11.604
			C240.357,207.086,239.923,211.168,238.713,215.066z M215.43,186.538c-2.308,1.196-3.588,1.802-3.832,1.825
			c-0.254,0.017-0.648-0.077-1.17-0.287l-0.404-0.349c-1.254,0.104-2.722,0.843-4.373,2.244c-1.662,1.4-2.959,2.645-3.882,3.728
			l-1.13,0.09c0.106-1.781,2.581-4.002,7.436-6.67c4.854-2.657,8.284-4.068,10.301-4.229c0.251-0.021,0.508,0.083,0.779,0.313
			l0.381-0.029l0.09,1.126C219.147,184.599,217.746,185.334,215.43,186.538z M215.209,229.086c-1.505,0.12-3.731-0.847-6.681-2.893
			c-1.069-0.669-1.741-1.123-2.013-1.351l2.992-0.622c0.772,0.19,1.956,0.729,3.548,1.615c1.357,1.16,2.417,1.835,3.196,2.029
			l0.087,1.13L215.209,229.086z M217.77,258.882c-0.766,1.581-2.153,2.447-4.162,2.604c-0.512,0.04-1.301-0.401-2.384-1.324
			l-0.405-0.352c0.462-0.538,1.441-0.999,2.926-1.37c1.471-0.622,2.555-1.28,3.267-1.963c0.699-0.695,0.963-2.166,0.786-4.434
			c0.541,0.462,0.829,0.946,0.869,1.448C218.83,255.501,218.525,257.304,217.77,258.882z M194.697,37.812l-0.759,0.06l0.06,0.759
			l0.756-0.06L194.697,37.812z M199.996,90.175c-1.257-6.222-2.079-10.214-2.471-11.953l0.689,8.673
			c0.017,0.25,0.19,0.749,0.501,1.491c0.582,0.956,0.893,1.705,0.933,2.2c0.756,9.556,2.227,15.393,4.427,17.499
			C203.025,104.371,201.661,98.4,199.996,90.175z M227.743,348.464l-3.781,0.298c-1.003,0.076-1.555-0.509-1.658-1.766l-0.382,0.03
			l-1.13,0.09c-0.772-0.19-1.28-0.274-1.531-0.257c-0.026-0.258,0.067-0.639,0.281-1.16c0.228-0.271,0.341-0.539,0.313-0.789
			l3.771-0.302c0.251-0.017,0.401,0.221,0.441,0.732l0.033,0.375c0.041,0.498-0.06,0.893-0.294,1.16
			c0.542,0.461,1.197,0.665,1.949,0.604l1.515-0.123c0.244-0.021,0.629-0.051,1.13-0.091l1.106-0.454
			C229.077,347.852,228.488,348.403,227.743,348.464z M215.864,280.292c-0.04-0.494-0.368-1.363-0.963-2.57
			c-0.672-1.979-1.043-3.464-1.124-4.477l-0.237-3.013l1.134-0.091c1.364,1.154,2.06,1.979,2.1,2.488
			C216.934,274.639,216.626,277.2,215.864,280.292z M220.582,320.554c-0.525-0.208-0.826-0.819-0.91-1.829
			c-0.271-0.234-0.779-0.317-1.534-0.258l0.254-1.538c0.271,0.234,0.815,0.699,1.635,1.388c0.545,0.468,0.956,0.939,1.254,1.418
			l0.061,0.762L220.582,320.554z M217.299,283.98l-0.819-0.695l-0.03-0.378l1.193,0.665L217.299,283.98z M204.604,109.941
			l0.274,3.396c0.036,0.502,0.327,0.98,0.869,1.441c0.294,0.491,0.454,0.856,0.472,1.106l0.986,12.451
			c0.043,0.508,0.21,1.124,0.521,1.859c0.334,0.99,0.528,1.729,0.562,2.233c-0.479,0.291-0.688,0.819-0.629,1.571
			c0.061,0.756,0.258,1.755,0.612,2.993c0.615,1.471,0.973,2.705,1.053,3.714l0.819,0.695l1.069-0.849
			c1.702-0.899,2.538-1.591,2.498-2.1L204.604,109.941z M215.202,181.239l-0.381,0.03c0.022,0.257-0.084,0.381-0.335,0.405
			l-1.893,0.15l-0.06-0.752c0.695-0.809,1.544-1.264,2.551-1.341L215.202,181.239z M226.476,275.274
			c-0.193,0.778-0.264,1.41-0.221,1.915c-0.785-0.193-1.478-1.02-2.1-2.483c-0.628-1.472-0.97-2.585-1.029-3.344
			c-0.104-1.25,0.221-2.039,0.949-2.351c0.521,0.214,1.083,0.799,1.672,1.762c0.578,0.97,0.89,1.706,0.923,2.204
			C226.713,273.485,226.643,274.251,226.476,275.274z M226.924,280.941l-1.19-0.666l0.348-0.407l1.197,0.658L226.924,280.941z
			 M230.742,319.37l-1.512,0.12c-0.273-0.234-0.428-0.605-0.465-1.106c-0.023-0.244,0.178-0.896,0.605-1.946
			c0.441-0.796,0.648-1.32,0.636-1.571c0.267,0.234,0.621,0.775,1.076,1.625c0.441,0.853,0.682,1.4,0.698,1.651
			C231.839,318.898,231.494,319.31,230.742,319.37z M218.542,180.209l-0.12-1.501l1.133-0.09l0.027,0.378
			c0.287,0.485,0.444,0.843,0.468,1.093L218.542,180.209z M224.62,185.043l-3.768,0.298c0.956-0.578,1.825-0.896,2.571-0.956
			l0.384-0.03c0.502-0.043,1.274,0.15,2.327,0.568L224.62,185.043z M221.595,180.353l-0.85-1.07l1.505-0.121
			C222.276,179.406,222.056,179.808,221.595,180.353z M228.191,263.365l-0.819-0.688l0.348-0.408l0.849,1.066L228.191,263.365z
			 M237.556,314.268c0.033,0.509-0.054,1.023-0.264,1.545c0.043,0.501,0.069,0.879,0.09,1.13l-0.348,0.401l-0.378,0.03
			c-0.501,0.04-1.04-0.288-1.602-1.007s-0.849-1.196-0.869-1.447l0.317-0.789l-0.03-0.378c0.295,0.484,0.683,0.705,1.19,0.665
			l0.378-0.03c0.479-0.294,0.85-0.451,1.101-0.468l0.381-0.03L237.556,314.268z M236.787,327.621l-0.495-1.478l0.759-0.061
			l0.12,1.508L236.787,327.621z M237.656,334.763l-0.15-1.886l-0.15-1.889l-0.087-1.131c1.09,0.934,1.685,2.023,1.782,3.277
			C239.134,334.141,238.666,334.686,237.656,334.763z M236.78,275.979c-0.404,1.294-0.582,2.196-0.542,2.698l-1.508,0.12
			c-0.097-1.257-0.331-2.508-0.679-3.737c-0.101-1.271-0.16-2.017-0.177-2.268l-0.124-1.508c-0.04-0.512,0.153-1.28,0.578-2.327
			c0.519,0.215,1.13,0.669,1.819,1.368c0.682,0.712,1.039,1.19,1.066,1.444C237.292,272.773,237.147,274.174,236.78,275.979z
			 M239.265,335.779l-0.385,0.029l0.327-0.788l0.368-0.03L239.265,335.779z M236.245,235.766c-0.521-0.207-0.839-1.077-0.956-2.585
			l-0.033-0.371l2.166-1.313c0.545,0.461,0.833,0.826,0.85,1.069C238.371,233.83,237.696,234.893,236.245,235.766z M242.675,264.134
			l-0.312,0.779l0.371-0.03l0.324-0.779L242.675,264.134z M236.8,180.677l-0.688,0.812l0.408,0.341l0.695-0.812L236.8,180.677z
			 M240.912,184.521l-1.397,1.635l0.034,0.375l1.731-2.04L240.912,184.521z M247.666,243.215c-0.515,1.562-1.006,2.483-1.498,2.774
			c-0.521-0.207-0.836-1.069-0.963-2.584c-0.076-0.996,0.354-1.919,1.311-2.759c-0.28-0.23-0.435-0.595-0.475-1.1
			c-0.02-0.251-0.04-0.508-0.06-0.752l1.886-0.15l0.029,0.371c0.271,0.233,0.418,0.471,0.438,0.726
			C248.401,240.5,248.168,241.66,247.666,243.215z M269.225,120.366l-0.258,1.538l0.378-0.03l0.257-1.541L269.225,120.366z"/>
		<path fill="#FFFFFF" d="M238.589,207.283c-0.317-4.042-3.858-7.058-7.9-6.74c-4.046,0.324-7.067,3.865-6.743,7.907
			c0.324,4.046,3.861,7.062,7.9,6.743C235.891,214.869,238.913,211.329,238.589,207.283z"/>
		<path fill="#FFFFFF" d="M163.594,218.407c-0.321-4.046-3.858-7.062-7.902-6.744c-4.043,0.324-7.064,3.865-6.742,7.91
			c0.323,4.042,3.858,7.059,7.902,6.74C160.896,225.993,163.915,222.449,163.594,218.407z"/>
	</g>
	<path d="M225.306,291.008c0,0,60.144-27.967,66.479-29.021c6.332-1.053,8.438-1.574,13.189,6.336
		c4.751,7.907,4.223,20.571-3.691,21.1c-7.913,0.525-70.174,12.665-70.174,12.665l-5.275-2.638L225.306,291.008z"/>
	<path fill="#FFFFFF" d="M303.313,287.444c0,0,3.27-2.03,3.644-4.979c0.368-2.949-0.087-6.75-1.083-10.298
		c-1.224-4.336-5.51-8.686-7.355-8.686c-1.839,0-4.794-1.101-6.269,1.106c-1.471,2.21-3.32,5.158-2.949,8.479
		s3.691,13.273,6.27,14.009C298.151,287.812,303.313,287.444,303.313,287.444z"/>
	<path fill="#FFFFFF" d="M285.975,278.534c0,0-1.465-4.936-1.003-6.801c0.461-1.855,1.01-5.223,1.01-5.223l-2.113,0.8
		c0,0-1.251,4.764-0.937,6.365c0.321,1.592,1.171,5.517,1.171,5.517L285.975,278.534z"/>
	<path fill="#FFFFFF" d="M281.22,280.402c0,0-1.243-5.121-0.755-7.091c0.484-1.949,1.09-5.486,1.09-5.486l-2.013,0.893
		c0,0-1.304,5.019-1.05,6.684c0.254,1.661,0.949,5.747,0.949,5.747L281.22,280.402z"/>
	<path d="M300.836,270.326l-0.432-0.723c-0.588-0.963-0.883-1.574-0.909-1.825c-0.061-0.749,0.16-1.153,0.669-1.19
		c0.02,0.251,0.407,0.472,1.187,0.659c0.552,0.464,0.826,0.825,0.849,1.076l0.117,1.515
		C302.086,270.105,301.588,270.266,300.836,270.326z"/>
	<path d="M295.547,282.98l0.357,0.662c0.498,0.886,0.749,1.444,0.775,1.672c0.057,0.686-0.113,1.057-0.521,1.086
		c-0.02-0.227-0.341-0.431-0.977-0.598c-0.454-0.432-0.682-0.753-0.712-0.986l-0.117-1.388
		C294.537,283.178,294.935,283.041,295.547,282.98z"/>
	<path d="M293.848,265.481c0,0-2.678,2.775-2.49,4.979c0.193,2.199,1.818,9.188,2.3,10.05c0.479,0.859-0.097,1.341-0.097,1.341
		s-1.916-5.075-2.491-8.138c-0.571-3.062-0.475-4.69,0.194-6.031c0.669-1.338,2.297-2.775,2.297-2.775l1.435-0.287L293.848,265.481z
		"/>
	<path fill="#FFFFFF" d="M289.732,265.193c0,0-2.013,4.02-1.912,6.604c0.094,2.585,1.625,8.426,2.391,9.669
		c0.766,1.244,2.777,5.359,2.777,5.359l-0.574,0.288c0,0-3.351-5.551-3.926-8.52c-0.574-2.965-1.34-6.891-1.34-6.891
		s0.097-1.818,0.672-3.35c0.571-1.531,1.434-3.447,1.434-3.447l0.572-0.669L289.732,265.193z"/>
</g>
</svg>
